<?xml version="1.0" standalone="no"?>
<!DOCTYPE svg PUBLIC "-//W3C//DTD SVG 20010904//EN"
 "http://www.w3.org/TR/2001/REC-SVG-20010904/DTD/svg10.dtd">
<svg version="1.0" xmlns="http://www.w3.org/2000/svg"
 width="528.000000pt" height="310.000000pt" viewBox="0 0 528.000000 310.000000"
 preserveAspectRatio="xMidYMid meet">

<g transform="translate(0.000000,310.000000) scale(0.100000,-0.100000)"
fill="white" stroke="none">
<path d="M0 1550 l0 -1550 2640 0 2640 0 0 1550 0 1550 -2640 0 -2640 0 0
-1550z m1540 591 c0 -5 -99 -82 -220 -171 -121 -89 -220 -166 -220 -169 0 -4
16 -54 35 -112 44 -129 105 -332 105 -348 0 -8 -34 -11 -122 -9 l-123 3 -87
270 c-48 149 -87 273 -87 277 -1 7 133 111 273 211 l79 57 183 0 c101 0 184
-4 184 -9z m244 -135 l169 -122 58 -179 c32 -99 56 -181 54 -183 -2 -2 -101
67 -220 153 -120 86 -223 159 -231 162 -7 3 -97 -56 -201 -132 -103 -75 -192
-139 -198 -141 -7 -3 -26 43 -47 112 l-36 116 67 48 c296 217 397 289 406 289
6 0 86 -55 179 -123z m646 -86 l0 -90 -95 0 -95 0 0 90 0 90 95 0 95 0 0 -90z
m290 -182 l0 -273 123 123 122 122 128 0 c70 0 127 -3 127 -8 0 -4 -83 -90
-185 -192 l-185 -185 187 -187 188 -188 -130 0 -130 0 -122 122 -123 123 0
-123 0 -122 -95 0 -95 0 0 530 0 530 95 0 95 0 0 -272z m1990 182 l0 -90 -199
0 -200 0 -15 -52 c-9 -29 -22 -74 -30 -99 l-14 -46 97 -6 c174 -11 278 -73
343 -204 28 -58 32 -75 32 -148 0 -73 -4 -90 -32 -148 -40 -81 -112 -148 -190
-177 -80 -31 -205 -25 -277 12 -102 53 -179 159 -192 266 l-6 52 92 0 c65 0
93 -4 95 -12 3 -7 7 -26 11 -42 11 -49 73 -103 128 -111 93 -14 187 66 187
160 0 54 -40 117 -90 143 -39 19 -59 22 -169 22 l-125 0 -62 61 -61 60 70 225
71 224 268 0 268 0 0 -90z m-3819 -362 l83 -258 248 0 c136 0 248 -3 248 -7 0
-5 -16 -56 -36 -115 l-36 -108 -293 0 -293 0 -67 199 -66 200 57 181 c32 99
61 177 65 173 4 -5 44 -124 90 -265z m962 74 c125 -90 227 -169 227 -176 0 -6
-29 -99 -63 -206 l-63 -195 -154 -113 c-84 -61 -155 -111 -157 -109 -1 2 36
122 82 267 82 252 85 265 68 281 -10 9 -97 74 -193 144 -96 70 -175 133 -175
140 0 18 176 145 190 138 5 -4 112 -80 238 -171z m1798 82 c30 -9 73 -27 96
-41 63 -37 138 -124 164 -191 24 -62 37 -207 21 -231 -8 -10 -69 -14 -293 -18
-156 -3 -286 -7 -288 -9 -3 -3 13 -22 35 -45 27 -28 55 -45 93 -56 48 -14 59
-14 115 0 l61 16 93 -36 92 -37 -32 -33 c-18 -19 -62 -49 -98 -66 -60 -30 -72
-32 -170 -32 -97 0 -110 2 -173 32 -291 138 -309 546 -31 709 92 54 212 68
315 38z m-1221 -384 l0 -380 -95 0 -95 0 0 380 0 380 95 0 95 0 0 -380z m-752
100 c50 -36 92 -72 92 -80 0 -8 -40 -137 -88 -285 l-88 -270 -214 -2 -215 -2
-152 118 c-84 65 -149 121 -146 125 3 3 128 6 278 6 l271 0 78 230 c44 127 82
229 85 228 4 -2 49 -32 99 -68z"/>
<path d="M3438 1520 c-20 -11 -50 -37 -67 -57 l-31 -38 191 -3 c106 -1 194 0
197 3 11 11 -50 74 -91 94 -57 27 -147 28 -199 1z"/>
</g>
</svg>
